<svg xmlns="http://www.w3.org/2000/svg" viewBox="0 0 217.83 48.43"><defs><style>.cls-1{fill:#58595b;}.cls-2{fill:#53c4cd;}</style></defs><g id="Camada_2" data-name="Camada 2"><g id="Camada_1-2" data-name="Camada 1"><path class="cls-1" d="M0,47.5V12.38H9.28V47.5Z"/><path class="cls-1" d="M30.44,48.43a20,20,0,0,1-7.62-1.36,15.69,15.69,0,0,1-9.19-9.65,22.36,22.36,0,0,1-1.21-7.51,21.84,21.84,0,0,1,1.25-7.58,16.41,16.41,0,0,1,3.59-5.87,16.05,16.05,0,0,1,5.67-3.75,20.11,20.11,0,0,1,7.51-1.33,19.69,19.69,0,0,1,7.41,1.33,15.93,15.93,0,0,1,5.59,3.72A16.19,16.19,0,0,1,47,22.26a22.24,22.24,0,0,1,1.25,7.65A22,22,0,0,1,47,37.52a16.64,16.64,0,0,1-3.56,5.83,15.78,15.78,0,0,1-5.63,3.76A19.7,19.7,0,0,1,30.44,48.43Zm0-7.78Q39,40.65,39,29.94T30.48,19.31Q22,19.31,22,29.94T30.48,40.65Z"/><path class="cls-1" d="M73.8,47.5V26.23q0-4.07-1.35-5.49c-.91-1-2.46-1.43-4.64-1.43q-7.22,0-7.21,8.06V47.5H51.32V12.38h8.85v5.13a11.37,11.37,0,0,1,4.34-4.58,13.94,13.94,0,0,1,7-1.55,13.63,13.63,0,0,1,4.63.76,9.8,9.8,0,0,1,3.66,2.25,10.77,10.77,0,0,1,2.42,3.68,13.37,13.37,0,0,1,.89,5V47.5Z"/><path class="cls-1" d="M87.08,47.5V12.38h9.28V47.5Z"/><path class="cls-1" d="M131.9,34.8a14.93,14.93,0,0,1-5.28,9.85,16.35,16.35,0,0,1-4.89,2.78,17.22,17.22,0,0,1-6,1,17.41,17.41,0,0,1-6.53-1.18,13.27,13.27,0,0,1-5.1-3.57,16.51,16.51,0,0,1-3.32-5.92,26,26,0,0,1-1.18-8.25,24.91,24.91,0,0,1,1.18-8.13,14.58,14.58,0,0,1,3.32-5.61,13.3,13.3,0,0,1,5.17-3.24,21.73,21.73,0,0,1,13-.15,14.69,14.69,0,0,1,4.93,2.72,13,13,0,0,1,3.32,4.28A15,15,0,0,1,132,25h-9.35a6.43,6.43,0,0,0-2.17-4.25A6.72,6.72,0,0,0,116,19.16a7.72,7.72,0,0,0-2.79.5A5.65,5.65,0,0,0,111,21.34a8.93,8.93,0,0,0-1.53,3.14,17.54,17.54,0,0,0-.57,4.82q0,5.77,2.07,8.57a5.93,5.93,0,0,0,4.78,2.78,7.31,7.31,0,0,0,4.64-1.5,6,6,0,0,0,2.21-4.35Z"/><path class="cls-2" d="M165.68,47.51V35.27c0-4.58-1.72-6.36-7.45-6.36H147.65v18.6H138V0H162.1c8.8,0,14.59,5.87,14.59,13.74,0,5.08-2.5,9.37-7.08,11,4.22,1.36,5.8,3.72,5.8,9.3V47.51Zm-18-39.28V20.89h12.44c5.3,0,7.3-2.64,7.3-6.29s-2-6.37-6.94-6.37Z"/><path class="cls-2" d="M207.82,47.51V26.19H189.29V47.51h-9.95V0h9.95V17.89h18.53V0h10V47.51Z"/></g></g></svg>