<svg xmlns="http://www.w3.org/2000/svg" viewBox="0 0 74.11 74.25"><defs><style>.cls-1{fill:#58595b;}</style></defs><g id="Camada_2" data-name="Camada 2"><g id="Camada_1-2" data-name="Camada 1"><path class="cls-1" d="M59.2,59.92V63.1h-.49V59.92h-1v-.45h2.51v.45Zm4.35,3.18V60.48l-.87,1.72h-.47l-.87-1.72V63.1h-.49V59.47h.49l1.11,2.2,1.1-2.2H64V63.1Z"/><path class="cls-1" d="M72.56,32.53c-3-3.72-9.87-6.72-18.51-8.49-2.49-14-9-24-16.7-24S23.14,9.65,20.41,23.41C4.67,26-3.65,32.57,1.55,39.06c2.94,3.68,9.69,6.65,18.18,8.43,2.1,15.42,9,26.7,17.14,26.76,2.86,0,5.57-1.33,8-3.77C51.62,63,54,52,54.79,44.12h0q.33-3.36.35-6.87c0-.92,0-1.83,0-2.71h0v-.16h0v-.07l.33.16c3,.77,5.28,1.82,6.27,3.06,1.5,1.87-.06,3.82-3.78,5.44a44.81,44.81,0,0,1-.74,4.54C70.65,44.55,77.36,38.51,72.56,32.53ZM32.18,9.08c3.38,0,6.29,5.38,7.75,13.25a95.77,95.77,0,0,0-13.42.29c-.81.07-1.6.16-2.38.25C25.66,14.67,28.7,9.06,32.18,9.08ZM40.83,38c-.36,7.64-1.52,10.94-1.69,11.4h0c-1.67,6.33-4.34,10.44-7.3,10.41-1.5,0-2.88-1.05-4.1-2.88C25,52.86,24,46,24,46a40.92,40.92,0,0,1-4.61-.91l-1.12-.34c-2.41-.75-4.17-1.67-5-2.74-1.57-2,.24-4,4.37-5.67.87-.38,1.51-.59,1.51-.59a66.45,66.45,0,0,1,21.81-2.87v.81c0,.27,0,.55,0,.82C40.93,35.67,40.89,36.83,40.83,38Z"/></g></g></svg>